<?xml version="1.0" encoding="utf-8"?>
<!-- Generator: Adobe Illustrator 16.0.0, SVG Export Plug-In . SVG Version: 6.00 Build 0)  -->
<!DOCTYPE svg PUBLIC "-//W3C//DTD SVG 1.1//EN" "http://www.w3.org/Graphics/SVG/1.1/DTD/svg11.dtd">
<svg version="1.1" id="Layer_1" xmlns="http://www.w3.org/2000/svg" xmlns:xlink="http://www.w3.org/1999/xlink" x="0px" y="0px"
	 width="100px" height="100px" viewBox="0 0 100 100" enable-background="new 0 0 100 100" xml:space="preserve">
<g>
	<path fill-rule="evenodd" clip-rule="evenodd" d="M10,17.354c26.546,0,53.094,0,80,0c0,3.312,0,6.372,0,10.045
		c-26.659,0-53.33,0-80,0C10,24.051,10,20.701,10,17.354z"/>
	<path fill-rule="evenodd" clip-rule="evenodd" d="M10,45.479c26.546,0,53.094,0,80,0c0,3.312,0,6.373,0,10.045
		c-26.659,0-53.33,0-80,0C10,52.177,10,48.827,10,45.479z"/>
	<path fill-rule="evenodd" clip-rule="evenodd" d="M10,72.602c26.546,0,53.094,0,80,0c0,3.312,0,6.372,0,10.045
		c-26.659,0-53.33,0-80,0C10,79.298,10,75.95,10,72.602z"/>
</g>
</svg>
