<?xml version="1.0" encoding="utf-8"?>
<!-- Generator: Adobe Illustrator 16.0.0, SVG Export Plug-In . SVG Version: 6.00 Build 0)  -->
<!DOCTYPE svg PUBLIC "-//W3C//DTD SVG 1.1//EN" "http://www.w3.org/Graphics/SVG/1.1/DTD/svg11.dtd">
<svg version="1.1" id="Layer_1" xmlns="http://www.w3.org/2000/svg" xmlns:xlink="http://www.w3.org/1999/xlink" x="0px" y="0px"
	 width="100px" height="100px" viewBox="0 0 100 100" enable-background="new 0 0 100 100" xml:space="preserve">
<g>
	<path fill-rule="evenodd" clip-rule="evenodd" d="M45.015,9.979c3.243,0,6.484,0,9.728,0c0.333,0.132,0.656,0.337,1.001,0.385
		c20.392,2.843,36.195,21.619,34.063,43.374c-2.255,23.021-23.531,39.588-46.478,35.724C25.254,86.418,11.21,71.206,10.094,53.463
		C8.858,33.83,19.976,17.284,38.215,11.682C40.445,10.997,42.746,10.541,45.015,9.979z M81.892,38.396
		c-0.253-0.703-0.427-1.257-0.648-1.79c-5.406-12.995-17.63-21.288-31.325-21.259C36.213,15.377,23.93,23.74,18.616,36.661
		c-0.708,1.721-0.139,4.299,1.247,5.432c1.506,1.23,2.577-0.132,3.768-0.699c0.463-0.221,0.883-0.53,1.332-0.781
		c11.648-6.506,23.971-9.096,36.974-5.291c5.231,1.53,10.1,4.312,15.116,6.563c1.085,0.487,2.195,1.336,3.117-0.006
		C80.903,40.812,81.341,39.54,81.892,38.396z M43.692,73.819c0.43-3.156-0.869-6.337-3.412-9.203
		c-2.092-2.357-3.918-4.951-5.873-7.434c-1.747-2.215-3.813-3.913-6.825-3.859c-1.976,0.035-3.953,0.13-5.922,0.291
		c-3.721,0.305-4.848,1.861-3.747,5.436c2.905,9.437,8.92,16.237,17.812,20.469C41.633,82.33,43.65,81.023,43.692,73.819z
		 M74.693,53.692c0-0.006,0-0.011,0-0.017c-0.589,0-1.192,0.085-1.765-0.014c-3.493-0.604-5.888,0.811-7.776,3.731
		c-1.309,2.025-2.916,3.902-4.618,5.618c-3.88,3.908-5.299,8.535-4.532,13.91c0.499,3.504,2.501,4.817,5.74,3.509
		c10.255-4.145,17.081-11.49,20.209-22.151c0.733-2.498-0.67-4.402-3.28-4.572C77.351,53.621,76.02,53.692,74.693,53.692z
		 M44.512,50.027c0.023,2.917,2.667,5.482,5.578,5.414c2.806-0.066,5.28-2.615,5.302-5.46c0.021-2.958-2.521-5.522-5.458-5.508
		C46.999,44.489,44.488,47.061,44.512,50.027z"/>
</g>
</svg>
