<?xml version="1.0" encoding="utf-8"?>
<!-- Generator: Adobe Illustrator 16.0.0, SVG Export Plug-In . SVG Version: 6.00 Build 0)  -->
<!DOCTYPE svg PUBLIC "-//W3C//DTD SVG 1.1//EN" "http://www.w3.org/Graphics/SVG/1.1/DTD/svg11.dtd">
<svg version="1.1" id="Layer_1" xmlns="http://www.w3.org/2000/svg" xmlns:xlink="http://www.w3.org/1999/xlink" x="0px" y="0px"
	 width="100px" height="100px" viewBox="35.49 50.488 100 100" enable-background="new 35.49 50.488 100 100" xml:space="preserve">
<g>
	<path d="M51.46,140.089c0-24.677,0-49.353,0-74.029c2.028-0.074,4.058-0.187,6.087-0.211c3.003-0.036,6.007-0.009,9.12-0.009
		c0.108-1.846,0.212-3.599,0.315-5.352c2.122,0,4.245,0,6.368,0c0,1.763,0,3.525,0,5.309c3.057,0,5.784,0,8.756,0
		c0-1.885,0-3.597,0-5.309c2.123,0,4.245,0,6.368,0c0,1.761,0,3.522,0,5.315c3.12,0,5.852,0,8.756,0c0-1.883,0-3.599,0-5.315
		c2.123,0,4.245,0,6.368,0c0.102,1.763,0.203,3.526,0.317,5.508c5.102,0,10.076,0,15.022,0c0,24.785,0,49.339,0,74.055
		c-0.905,0-1.688,0-2.47,0C94.799,140.065,73.129,140.076,51.46,140.089z M58.312,133.213c18.092,0,36.008,0,53.872,0
		c0-20.276,0-40.389,0-60.528c-2.837,0-5.516,0-8.478,0c0,1.808,0,3.483,0,5.154c-2.311,0-4.333,0-6.534,0c0-1.751,0-3.382,0-5.151
		c-2.914,0-5.648,0-8.657,0c0,1.811,0,3.487,0,5.146c-2.301,0-4.324,0-6.612,0c0-1.803,0-3.481,0-5.142c-2.956,0-5.644,0-8.582,0
		c0,1.819,0,3.496,0,5.145c-2.287,0-4.315,0-6.607,0c0-1.807,0-3.49,0-5.144c-2.958,0-5.647,0-8.401,0
		C58.312,92.915,58.312,112.988,58.312,133.213z"/>
	<path fill="none" d="M51.46,140.089c21.669-0.013,43.339-0.024,65.008-0.038c0.783,0,1.565,0,2.471,0c0-24.716,0-49.271,0-74.055
		c-4.946,0-9.921,0-15.022,0c-0.114-1.982-0.217-3.745-0.317-5.508c5.307,0,10.613,0,15.92,0c0,26.667,0,53.333,0,80
		c-22.156,0-44.312,0.003-66.467-0.017C52.521,140.471,51.99,140.222,51.46,140.089z"/>
	<path fill="none" d="M66.983,60.488c-0.104,1.753-0.207,3.506-0.315,5.352c-3.113,0-6.117-0.027-9.12,0.009
		c-2.029,0.024-4.059,0.138-6.087,0.211c0-1.857,0-3.715,0-5.572C56.634,60.488,61.808,60.488,66.983,60.488z"/>
	<path fill="none" d="M82.107,60.488c0,1.712,0,3.424,0,5.309c-2.972,0-5.699,0-8.757,0c0-1.784,0-3.546,0-5.309
		C76.269,60.488,79.188,60.488,82.107,60.488z"/>
	<path fill="none" d="M97.231,60.488c0,1.716,0,3.432,0,5.315c-2.905,0-5.636,0-8.757,0c0-1.792,0-3.554,0-5.315
		C91.393,60.488,94.311,60.488,97.231,60.488z"/>
	<path fill="none" d="M58.312,133.213c0-20.226,0-40.298,0-60.521c2.754,0,5.443,0,8.401,0c0,1.654,0,3.337,0,5.144
		c2.291,0,4.32,0,6.607,0c0-1.649,0-3.326,0-5.145c2.938,0,5.626,0,8.582,0c0,1.661,0,3.339,0,5.142c2.289,0,4.312,0,6.612,0
		c0-1.659,0-3.334,0-5.146c3.009,0,5.743,0,8.657,0c0,1.77,0,3.4,0,5.151c2.201,0,4.224,0,6.534,0c0-1.671,0-3.346,0-5.154
		c2.962,0,5.641,0,8.478,0c0,20.139,0,40.252,0,60.528C94.32,133.213,76.404,133.213,58.312,133.213z M88.634,114.481
		c0-8.622,0-17.066,0-25.491c-4.115,0-8.042,0-11.896,0c0,2.283,0,4.365,0,6.602c1.798,0,3.432,0,5.13,0c0,6.356,0,12.549,0,18.998
		c-1.808,0-3.486,0-5.177,0c0,2.284,0,4.31,0,6.49c5.78,0,11.441,0,17.169,0c0-2.27,0-4.345,0-6.599
		C92.082,114.481,90.448,114.481,88.634,114.481z"/>
	<path d="M88.634,114.481c1.814,0,3.448,0,5.227,0c0,2.254,0,4.329,0,6.599c-5.728,0-11.388,0-17.169,0c0-2.181,0-4.205,0-6.49
		c1.69,0,3.369,0,5.177,0c0-6.449,0-12.642,0-18.998c-1.698,0-3.332,0-5.13,0c0-2.236,0-4.319,0-6.602c3.854,0,7.78,0,11.896,0
		C88.634,97.415,88.634,105.859,88.634,114.481z"/>
</g>
</svg>
