<?xml version="1.0" encoding="utf-8"?>
<!-- Generator: Adobe Illustrator 16.0.0, SVG Export Plug-In . SVG Version: 6.00 Build 0)  -->
<!DOCTYPE svg PUBLIC "-//W3C//DTD SVG 1.1//EN" "http://www.w3.org/Graphics/SVG/1.1/DTD/svg11.dtd">
<svg version="1.1" id="Layer_1" xmlns="http://www.w3.org/2000/svg" xmlns:xlink="http://www.w3.org/1999/xlink" x="0px" y="0px"
	 width="100px" height="100px" viewBox="0 0 100 100" enable-background="new 0 0 100 100" xml:space="preserve">
<g>
	<path fill-rule="evenodd" clip-rule="evenodd" d="M10,22.658c26.55,0,80,0,80,0v8.838c0,0-27.48,21.182-39.802,31.151
		c-4.424-3.564-8.781-7.118-13.183-10.614C28.023,44.891,19.006,37.781,10,30.657C10,27.99,10,25.324,10,22.658z"/>
	<path fill-rule="evenodd" clip-rule="evenodd" d="M10,35.656c7.409,5.496,14.817,10.993,22.739,16.871
		C24.817,59.538,17.409,66.095,10,72.651C10,60.32,10,47.987,10,35.656z"/>
	<path fill-rule="evenodd" clip-rule="evenodd" d="M10.358,77.342c8.639-7.743,16.463-14.756,24.675-22.116
		c4.958,4.033,9.837,8,15.119,12.296c4.854-3.948,9.731-7.912,15.146-12.313C73.276,62.356,81.256,69.507,90,77.342
		C63.126,77.342,37.343,77.342,10.358,77.342z"/>
	<path fill-rule="evenodd" clip-rule="evenodd" d="M90,35.226c0,0,0,24.46,0,37.259c-7.749-6.813-14.606-13.071-22.271-19.811
		C75.19,46.895,90,35.226,90,35.226z"/>
</g>
</svg>
