<?xml version="1.0" encoding="utf-8"?>
<!-- Generator: Adobe Illustrator 16.0.0, SVG Export Plug-In . SVG Version: 6.00 Build 0)  -->
<!DOCTYPE svg PUBLIC "-//W3C//DTD SVG 1.1//EN" "http://www.w3.org/Graphics/SVG/1.1/DTD/svg11.dtd">
<svg version="1.1" id="Your_Icon" xmlns="http://www.w3.org/2000/svg" xmlns:xlink="http://www.w3.org/1999/xlink" x="0px" y="0px"
	 width="100px" height="100px" viewBox="0 0 100 100" enable-background="new 0 0 100 100" xml:space="preserve">
<g>
	<path d="M55.206,87.258c8.55,4.112,14.646,2.734,16.487,1.398L57.78,68.615c-2.797,1.943-5.474-0.711-10.475-6.55
		c-3.307-3.863-7.004-8.925-10.009-14.417c-2.109-3.856-3.873-7.823-0.945-9.856L22.069,17.264
		c-3.1,2.709-11.442,16.782,8.199,45.831c7.989,11.817,15.483,18.669,21.869,22.502L55.206,87.258z"/>
	<path d="M81.866,78.158l0.002-0.016c0,0-10.853-15.612-10.859-15.622c-0.86-1.237-2.541-1.52-3.763-0.671l-5.676,3.941
		l13.95,20.092c0,0,5.669-3.924,5.67-3.934l0.005-0.008C82.492,81.042,82.688,79.339,81.866,78.158z"/>
	<path d="M45.839,31.04l0.006-0.011c1.297-0.899,1.492-2.599,0.671-3.782l0.004-0.015c0,0-11.167-16.063-11.174-16.073
		c-0.86-1.24-2.543-1.52-3.762-0.67l-5.677,3.94L40.17,34.972C40.17,34.972,45.838,31.048,45.839,31.04z"/>
</g>
</svg>
