<?xml version="1.0" encoding="utf-8"?>
<!-- Generator: Adobe Illustrator 16.0.0, SVG Export Plug-In . SVG Version: 6.00 Build 0)  -->
<!DOCTYPE svg PUBLIC "-//W3C//DTD SVG 1.1//EN" "http://www.w3.org/Graphics/SVG/1.1/DTD/svg11.dtd">
<svg version="1.1" id="Layer_1" xmlns="http://www.w3.org/2000/svg" xmlns:xlink="http://www.w3.org/1999/xlink" x="0px" y="0px"
	 width="100px" height="100px" viewBox="-24.613 3.903 100 100" enable-background="new -24.613 3.903 100 100"
	 xml:space="preserve">
<g>
	<path d="M6.548,54.005c0-4.699,0-9.398,0-14.097c2.664,0,5.328,0,8.24,0c0-3.853-0.125-7.063,0.024-10.258
		c0.393-8.372,4.815-14.379,12.305-15.383c5.42-0.726,11.017-0.141,16.715-0.141c0,4.394,0,8.669,0,13.38
		c-2.893,0-5.648-0.352-8.248,0.138c-1.446,0.272-3.501,1.771-3.753,3.025c-0.566,2.814-0.178,5.82-0.178,9.196
		c4.347,0,8.362,0,12.572,0c-0.537,4.961-1.023,9.445-1.547,14.269c-3.884,0-7.407,0-11.23,0c0,13.451,0,26.519,0,39.769
		c-5.667,0-11.021,0-16.778,0c0-13.374,0-26.528,0-39.897C11.698,54.005,9.123,54.005,6.548,54.005z"/>
</g>
</svg>
