<?xml version="1.0" encoding="utf-8"?>
<!-- Generator: Adobe Illustrator 16.0.0, SVG Export Plug-In . SVG Version: 6.00 Build 0)  -->
<!DOCTYPE svg PUBLIC "-//W3C//DTD SVG 1.1//EN" "http://www.w3.org/Graphics/SVG/1.1/DTD/svg11.dtd">
<svg version="1.1" id="Layer_1" xmlns="http://www.w3.org/2000/svg" xmlns:xlink="http://www.w3.org/1999/xlink" x="0px" y="0px"
	 width="100px" height="100px" viewBox="0 0 100 100" enable-background="new 0 0 100 100" xml:space="preserve">
<path d="M41.305,21.401c5.668,0,11.337,0,17.005,0c8.979,1.464,14.586,7.049,18.279,14.967c0.531,1.139,1.039,2.289,1.713,3.775
	c0.857-2.588,2.674-2.919,4.747-2.779c0.769,0.052,1.544,0.002,2.316,0.008c2.579,0.018,3.987,1.141,3.977,3.165
	c-0.011,1.923-1.409,3.025-3.879,3.043c-1.327,0.01-2.655,0.002-4.375,0.002c0.548,0.587,0.778,0.857,1.033,1.104
	c2.437,2.368,3.633,5.231,3.592,8.646c-0.046,3.797,0.101,7.6-0.071,11.391c-0.061,1.328-0.806,2.627-1.259,3.935
	c-0.337,0.971-1.047,1.942-1.011,2.893c0.273,7.263-1.786,6.517-6.951,6.47c-2.311-0.021-3.395-1.175-3.462-3.484
	c-0.036-1.252-0.006-2.508-0.006-3.785c-15.542,0-30.763,0-46.207,0c0,1.221,0.006,2.299-0.001,3.377
	c-0.019,2.785-1.07,3.859-3.826,3.912c-6.117,0.121-6.46-0.238-6.526-6.287c-0.01-0.891-0.171-1.994-0.705-2.621
	c-1.307-1.535-1.8-3.201-1.718-5.154c0.087-2.047,0.231-4.106,0.09-6.143c-0.364-5.207-0.313-10.235,4.304-14.067
	c-1.748-0.193-3.395-0.135-5.033-0.21c-1.512-0.069-2.555-0.89-2.877-2.395c-0.316-1.483,0.215-2.686,1.571-3.407
	c2.472-1.314,7.815-0.177,9.574,2.086c0.32-0.765,0.6-1.476,0.912-2.172c2.639-5.869,6.043-11.136,12.065-14.035
	C36.688,22.615,39.055,22.129,41.305,21.401z M49.748,42.614c7.271,0,14.542,0.007,21.813-0.004c2.521-0.004,3.155-0.945,2.07-3.262
	c-0.869-1.858-1.796-3.714-2.922-5.422c-3.729-5.66-8.848-8.803-15.831-8.564c-3.534,0.122-7.078,0.081-10.615,0.01
	c-5.695-0.115-10.297,2.143-13.738,6.551c-1.684,2.157-3.018,4.623-4.271,7.071c-1.402,2.738-0.774,3.62,2.261,3.623
	C35.592,42.621,42.67,42.617,49.748,42.614z M26.807,54.334c1.93,0,3.864,0.072,5.787-0.043c0.598-0.035,1.464-0.453,1.662-0.926
	c0.196-0.465-0.108-1.418-0.521-1.814c-2.082-1.998-4.523-3.392-7.44-3.767c-2.931-0.377-5.771,1.228-6.923,3.858
	c-0.735,1.685-0.186,2.629,1.646,2.678C22.945,54.373,24.877,54.334,26.807,54.334z M72.98,54.338c1.865,0,3.731,0.029,5.599-0.01
	c1.94-0.037,2.515-0.99,1.72-2.76c-1.172-2.614-4.027-4.176-6.968-3.771c-2.771,0.383-5.132,1.666-7.138,3.556
	c-0.479,0.451-1.012,1.535-0.797,1.883c0.349,0.561,1.273,0.998,1.988,1.055C69.241,54.432,71.113,54.338,72.98,54.338z
	 M49.806,63.012c-3.473,0-6.945-0.002-10.417,0.002c-0.965,0.002-2.205-0.108-2.051,1.271c0.053,0.477,1.266,1.164,1.956,1.172
	c7.008,0.088,14.019,0.053,21.026,0.057c1,0,2.154,0.012,2.117-1.322c-0.037-1.387-1.274-1.17-2.215-1.174
	C56.75,63.006,53.277,63.012,49.806,63.012z"/>
</svg>
