<?xml version="1.0" encoding="utf-8"?>
<!-- Generator: Adobe Illustrator 16.0.0, SVG Export Plug-In . SVG Version: 6.00 Build 0)  -->
<!DOCTYPE svg PUBLIC "-//W3C//DTD SVG 1.1//EN" "http://www.w3.org/Graphics/SVG/1.1/DTD/svg11.dtd">
<svg version="1.1" id="Layer_1" xmlns="http://www.w3.org/2000/svg" xmlns:xlink="http://www.w3.org/1999/xlink" x="0px" y="0px"
	 width="164.979px" height="168.979px" viewBox="0 0 164.979 168.979" enable-background="new 0 0 164.979 168.979"
	 xml:space="preserve">
<g>
	<path fill-rule="evenodd" clip-rule="evenodd" d="M1,163.979c1.651-5.559,3.372-11.097,4.929-16.681
		c0.984-3.529,3.051-5.363,6.798-5.305c2.995,0.047,6.032-0.412,8.978-0.055c4.494,0.544,6.362-1.641,7.312-5.592
		c1.476-6.142,3.297-12.204,4.671-18.366c0.783-3.509,2.443-5.014,6.143-5c29.485,0.106,58.972,0.12,88.457,0.022
		c2.77-0.01,3.769,1.104,4.372,3.491c1.672,6.608,3.604,13.153,5.178,19.784c0.954,4.027,2.885,5.785,7.288,5.68
		c16.504-0.396,14.098-0.215,18.018,13.021c0.613,2.072,1.255,4.142,1.733,6.247c1.434,6.299-0.427,8.587-6.99,8.589
		c-43.656,0.011-87.312,0.006-130.969,0.006c-5.998,0-12.005-0.192-17.992,0.072c-3.547,0.156-6.098-0.958-7.926-3.915
		C1,165.312,1,164.646,1,163.979z"/>
	<path fill-rule="evenodd" clip-rule="evenodd" d="M84.989,1c1.402,0.386,2.792,0.831,4.21,1.147
		c6.861,1.53,13.036,4.858,15.356,11.484c4.582,13.08,8.092,26.536,12.258,40.554c-22.687,0-44.165,0-66.435,0
		c2.354-8.687,4.6-17.111,6.935-25.512c0.933-3.356,2.187-6.625,3.083-9.99c2.656-9.971,9.133-15.476,19.272-16.87
		C80.464,1.704,81.217,1.278,81.99,1C82.989,1,83.989,1,84.989,1z"/>
	<path fill-rule="evenodd" clip-rule="evenodd" d="M39.216,97.467c2.079-7.886,3.9-15.818,6.412-23.526
		c0.557-1.709,3.541-3.712,5.429-3.735c21.975-0.261,43.956-0.211,65.933-0.063c1.353,0.009,3.568,1.262,3.902,2.38
		c2.424,8.097,4.467,16.307,6.752,24.944C97.955,97.467,68.772,97.467,39.216,97.467z"/>
</g>
</svg>
