<?xml version="1.0" encoding="utf-8"?>
<!-- Generator: Adobe Illustrator 16.0.0, SVG Export Plug-In . SVG Version: 6.00 Build 0)  -->
<!DOCTYPE svg PUBLIC "-//W3C//DTD SVG 1.1//EN" "http://www.w3.org/Graphics/SVG/1.1/DTD/svg11.dtd">
<svg version="1.1" id="Layer_1" xmlns="http://www.w3.org/2000/svg" xmlns:xlink="http://www.w3.org/1999/xlink" x="0px" y="0px"
	 width="100px" height="100px" viewBox="0 0 100 100" enable-background="new 0 0 100 100" xml:space="preserve">
<g>
	<path fill-rule="evenodd" clip-rule="evenodd" d="M89.999,50.049c-0.001,10.123,0.003,20.247-0.002,30.37
		c-0.003,5.641-3.945,9.577-9.596,9.578c-20.288,0.004-40.577,0.004-60.865,0c-5.542-0.002-9.528-3.981-9.53-9.533
		c-0.008-20.289-0.007-40.578-0.001-60.866c0.002-5.618,3.984-9.591,9.612-9.593c20.247-0.006,40.494-0.005,60.741,0
		c5.712,0.001,9.639,3.95,9.641,9.674C90.001,29.802,89.999,39.925,89.999,50.049z M73.888,43.895
		c1.73,7.849,0.411,14.976-4.48,21.225c-4.893,6.251-11.437,9.439-19.371,9.486c-6.862,0.04-12.813-2.438-17.582-7.381
		c-6.323-6.552-8.231-14.416-6.344-23.294c-2.335,0-4.564,0-6.87,0c0,0.458,0,0.829,0,1.2c0,10.661-0.002,21.322,0.002,31.983
		c0,2.525,1.126,3.648,3.661,3.648c18.074,0.003,36.147,0.003,54.22,0c2.534,0,3.641-1.114,3.642-3.658
		c0.003-10.66,0.003-21.321-0.002-31.982c0-0.396-0.048-0.792-0.076-1.227C78.413,43.895,76.259,43.895,73.888,43.895z
		 M34.642,50.014c0.006,8.484,6.824,15.338,15.311,15.391c8.471,0.054,15.454-6.903,15.454-15.399
		c0-8.461-6.852-15.325-15.338-15.364C41.53,34.602,34.636,41.471,34.642,50.014z M65.412,26.864c0,1.416,0,2.832,0,4.248
		c0,0.083-0.002,0.167,0.001,0.25c0.057,1.999,1.188,3.222,3.174,3.255c2.997,0.051,5.997,0.051,8.995,0
		c1.99-0.034,3.164-1.267,3.179-3.247c0.022-2.957,0.021-5.914,0-8.87c-0.015-1.98-1.219-3.229-3.171-3.25
		c-2.997-0.033-5.996-0.031-8.994-0.001c-1.905,0.019-3.124,1.227-3.173,3.117C65.384,23.865,65.415,25.365,65.412,26.864z"/>
</g>
</svg>
