<?xml version="1.0" encoding="utf-8"?>
<!-- Generator: Adobe Illustrator 16.0.0, SVG Export Plug-In . SVG Version: 6.00 Build 0)  -->
<!DOCTYPE svg PUBLIC "-//W3C//DTD SVG 1.1//EN" "http://www.w3.org/Graphics/SVG/1.1/DTD/svg11.dtd">
<svg version="1.1"
	 id="svg2" xmlns:cc="http://creativecommons.org/ns#" xmlns:svg="http://www.w3.org/2000/svg" xmlns:rdf="http://www.w3.org/1999/02/22-rdf-syntax-ns#" xmlns:sodipodi="http://sodipodi.sourceforge.net/DTD/sodipodi-0.dtd" xmlns:dc="http://purl.org/dc/elements/1.1/" xmlns:inkscape="http://www.inkscape.org/namespaces/inkscape" inkscape:version="0.48.4 r9939" sodipodi:docname="Twitter_bird_logo_2012.svg"
	 xmlns="http://www.w3.org/2000/svg" xmlns:xlink="http://www.w3.org/1999/xlink" x="0px" y="0px" width="100px" height="100px"
	 viewBox="35.753 19.689 100 100" enable-background="new 35.753 19.689 100 100" xml:space="preserve">
<g id="layer1" transform="translate(-282.32053,-396.30734)" inkscape:label="Layer 1" inkscape:groupmode="layer">
	<path id="path5" inkscape:connector-curvature="0" d="M408.073,441.186c-2.943,1.306-6.106,2.188-9.427,2.584
		c3.389-2.031,5.991-5.247,7.217-9.08c-3.172,1.881-6.685,3.247-10.423,3.982c-2.993-3.189-7.26-5.183-11.98-5.183
		c-9.063,0-16.413,7.349-16.413,16.412c0,1.287,0.145,2.539,0.425,3.74c-13.641-0.684-25.734-7.218-33.829-17.148
		c-1.413,2.424-2.223,5.243-2.223,8.251c0,5.694,2.897,10.718,7.302,13.661c-2.69-0.085-5.221-0.823-7.434-2.053
		c-0.002,0.068-0.002,0.138-0.002,0.207c0,7.952,5.658,14.585,13.166,16.094c-1.377,0.375-2.827,0.575-4.324,0.575
		c-1.058,0-2.086-0.103-3.088-0.294c2.089,6.52,8.15,11.266,15.333,11.397c-5.617,4.402-12.694,7.026-20.384,7.026
		c-1.325,0-2.631-0.078-3.915-0.229c7.264,4.657,15.891,7.374,25.16,7.374c30.189,0,46.699-25.009,46.699-46.698
		c0-0.712-0.017-1.42-0.048-2.124C403.09,447.368,405.873,444.477,408.073,441.186L408.073,441.186z"/>
</g>
</svg>
