<?xml version="1.0" encoding="utf-8"?>
<!-- Generator: Adobe Illustrator 16.0.0, SVG Export Plug-In . SVG Version: 6.00 Build 0)  -->
<!DOCTYPE svg PUBLIC "-//W3C//DTD SVG 1.1//EN" "http://www.w3.org/Graphics/SVG/1.1/DTD/svg11.dtd">
<svg version="1.1" id="Capa_1" xmlns="http://www.w3.org/2000/svg" xmlns:xlink="http://www.w3.org/1999/xlink" x="0px" y="0px"
	 width="100px" height="100px" viewBox="90.2 119.308 100 100" enable-background="new 90.2 119.308 100 100" xml:space="preserve">
<g id="Layer_1">
	<g>
		<g>
			<path d="M130.723,165.264h18.639c5.252,0.187,10.509,0.338,15.757,0.695c3.406,0.31,6.489,3.002,7.074,6.403
				c1.521,9.767,1.524,19.768,0.041,29.54c-0.407,2.806-2.506,5.23-5.158,6.177c-1.673,0.647-3.495,0.503-5.25,0.652
				c-15.357,0.813-30.76,0.766-46.112-0.14c-3.842-0.123-7.349-3.312-7.633-7.184c-1.39-9.613-1.368-19.437,0.113-29.039
				c0.563-3.448,3.721-6.169,7.169-6.438C120.477,165.585,125.601,165.441,130.723,165.264z M112.941,172.239
				c0.002,1.359,0,2.716,0,4.075c1.537,0.002,3.073-0.005,4.612,0.002c-0.002,8.252-0.002,16.504,0,24.757
				c1.437,0.001,2.874,0.001,4.312,0c0.002-8.253-0.002-16.505,0.002-24.759c1.556-0.003,3.111,0.002,4.667,0
				c-0.002-1.361,0.005-2.721-0.005-4.079C121.998,172.241,117.469,172.232,112.941,172.239z M141.663,172.237
				c-0.003,9.613-0.003,19.225,0,28.836c1.279,0.001,2.559,0.001,3.839,0c0-0.701,0-1.402-0.005-2.103
				c0.857,1.021,1.905,1.995,3.245,2.3c1.188,0.28,2.596-0.074,3.313-1.113c0.806-1.136,0.871-2.581,0.938-3.919
				c0.112-3.944,0.113-7.897-0.002-11.843c-0.068-1.392-0.156-2.928-1.104-4.039c-0.733-0.88-1.976-1.161-3.064-0.934
				c-1.368,0.245-2.448,1.222-3.317,2.245c-0.007-3.145,0-6.287-0.003-9.432C144.221,172.237,142.942,172.235,141.663,172.237z
				 M157.383,181.398c-0.998,1.234-1.226,2.887-1.298,4.424c-0.015,2.602,0.003,5.207-0.007,7.812
				c-0.021,1.916,0.083,4.024,1.301,5.604c2.236,2.961,7.489,2.862,9.445-0.362c1.043-1.545,0.874-3.474,0.897-5.246
				c-1.316,0-2.633,0-3.949,0.001c-0.102,1.09,0.108,2.256-0.326,3.288c-0.471,1.113-2.17,1.218-2.897,0.321
				c-0.508-0.597-0.557-1.425-0.606-2.172c-0.05-1.345-0.01-2.692-0.021-4.039c2.601-0.003,5.2,0,7.8,0
				c-0.009-1.657,0.018-3.314-0.009-4.972c-0.073-1.646-0.298-3.411-1.366-4.736C164.185,178.633,159.503,178.689,157.383,181.398z
				 M127.067,179.623c0,5.617-0.006,11.233,0.002,16.85c0.075,1.231-0.016,2.546,0.536,3.688c0.539,1.066,1.894,1.371,2.981,1.137
				c1.56-0.3,2.747-1.449,3.803-2.555c0.002,0.777,0.002,1.555,0.002,2.331c1.3,0.001,2.598,0.001,3.898,0
				c0.002-7.148,0.002-14.299,0-21.45c-1.3,0-2.598,0-3.896,0c0,5.461-0.006,10.919,0.002,16.38
				c-0.654,0.808-1.423,1.859-2.579,1.819c-0.68-0.014-0.851-0.794-0.849-1.34c-0.015-5.619,0-11.238-0.006-16.859
				C129.662,179.623,128.365,179.623,127.067,179.623z"/>
		</g>
		<path d="M116.979,129.309c1.587,0.003,3.176-0.008,4.762,0.008c1.089,4.399,2.197,8.792,3.286,13.189
			c1.073-4.394,2.117-8.795,3.174-13.194c1.561-0.006,3.125-0.003,4.686-0.003c-1.632,5.847-3.267,11.697-4.897,17.547
			c-0.29,1.06-0.696,2.114-0.672,3.24c0.005,4.267,0.02,8.537-0.005,12.804c-1.539-0.011-3.08-0.003-4.618-0.008
			c0-4.078-0.01-8.157,0.005-12.233c0.056-1.275-0.229-2.519-0.523-3.741c-1.435-5.834-3.409-11.491-5.197-17.206V129.309
			L116.979,129.309z"/>
		<g>
			<path d="M137.143,137.884c2.066-0.628,4.517-0.292,6.102,1.385c1.502,1.47,1.926,3.766,1.981,5.866
				c0.104,3.207,0.069,6.417,0.034,9.624c-0.038,2.202-0.216,4.622-1.62,6.354c-1.935,2.461-5.619,2.777-8.046,1.019
				c-1.906-1.358-2.582-3.92-2.656-6.269c-0.064-3.3-0.008-6.604-0.028-9.908c0.044-1.86,0.178-3.837,1.095-5.464
				C134.718,139.249,135.845,138.294,137.143,137.884z M138.138,141.925c-0.899,0.608-0.995,1.899-1.039,2.937
				c-0.005,3.576,0.005,7.149-0.002,10.725c0.018,0.975,0.053,2.045,0.625,2.852c0.673,0.969,2.239,0.897,2.829-0.132
				c0.558-0.969,0.513-2.161,0.551-3.257c-0.007-3.212,0.002-6.422-0.005-9.632c-0.049-1-0.039-2.082-0.549-2.954
				C140.052,141.603,138.91,141.465,138.138,141.925z"/>
		</g>
		<path d="M148.718,137.911c1.374,0,2.747-0.002,4.121,0.003c0.002,6.359,0.002,12.718,0,19.077c0.027,0.605,0.005,1.271,0.325,1.8
			c0.465,0.542,1.238,0.311,1.757-0.02c0.646-0.442,1.2-1.068,1.574-1.795c0.071-6.351,0.005-12.709,0.03-19.063
			c1.394-0.006,2.79-0.006,4.185-0.003c0.002,8.327,0.002,16.655,0,24.979c-1.395,0.002-2.791,0.002-4.185,0
			c-0.003-0.906-0.003-1.812-0.003-2.717c-1.152,1.354-2.508,2.745-4.266,3.014c-1.156,0.215-2.576-0.262-3.069-1.511
			c-0.408-1.043-0.441-2.202-0.475-3.317C148.718,151.543,148.713,144.728,148.718,137.911z"/>
		<path d="M145.497,183.768c0.601-0.501,1.315-1.005,2.144-0.898c0.639,0.023,1.106,0.584,1.275,1.158
			c0.279,0.969,0.245,1.99,0.251,2.99c-0.015,2.671,0.02,5.345-0.015,8.016c-0.065,0.932-0.095,2.13-1.02,2.647
			c-0.948,0.456-1.929-0.18-2.632-0.785C145.5,192.521,145.507,188.143,145.497,183.768z"/>
		<path d="M160.37,183.683c0.38-0.785,1.378-0.955,2.151-0.748c0.73,0.24,1.092,1.015,1.213,1.719
			c0.165,1.033,0.062,2.083,0.085,3.123c-1.301,0.003-2.599,0.003-3.896,0C159.973,186.415,159.734,184.942,160.37,183.683z"/>
	</g>
</g>
</svg>
