<?xml version="1.0" encoding="utf-8"?>
<!-- Generator: Adobe Illustrator 16.0.0, SVG Export Plug-In . SVG Version: 6.00 Build 0)  -->
<!DOCTYPE svg PUBLIC "-//W3C//DTD SVG 1.1//EN" "http://www.w3.org/Graphics/SVG/1.1/DTD/svg11.dtd">
<svg version="1.1" id="Layer_1" xmlns="http://www.w3.org/2000/svg" xmlns:xlink="http://www.w3.org/1999/xlink" x="0px" y="0px"
	 width="100px" height="100px" viewBox="0 0 100 100" enable-background="new 0 0 100 100" xml:space="preserve">
<g>
	<path fill-rule="evenodd" clip-rule="evenodd" d="M10,78.841c0.169-3.105,2.321-4.955,4.321-6.938
		c5.861-5.813,11.673-11.676,17.528-17.494c1.248-1.24,1.988-2.578,2.149-4.416c0.095-1.077,0.833-2.291,1.644-3.063
		c1.094-1.042,1.297-2.074,1.046-3.444c-0.646-3.521-1.214-7.055-1.818-10.583c-0.396-2.313,0.275-4.212,1.971-5.871
		c4.015-3.927,7.991-7.894,11.912-11.914c1.896-1.944,3.988-2.444,6.627-1.852c13.339,2.999,22.431,10.779,27.035,23.705
		c0.218,0.614,0.381,1.247,0.734,2.414c-1.681-0.974-2.934-1.678-4.165-2.418c-2.729-1.641-5.545-2.682-8.854-2.077
		c-0.8,0.146-1.955-0.447-2.631-1.053c-2.063-1.849-3.925-3.921-5.954-5.81c-2.207-2.052-3.601-1.993-5.795,0.034
		c-4.567,4.219-4.58,5.08-0.129,9.534c1.913,1.915,3.787,3.871,5.758,5.725c2.28,2.146,5.764,1.124,6.698-1.9
		c1.379-4.462,2.879-5.353,7.229-3.595c6.782,2.742,11.485,7.7,14.251,14.458c0.347,0.846,0.439,1.845,0.442,2.772
		c0.006,2.582-1.552,4.294-4.075,3.813c-2.387-0.454-4.659-1.623-6.906-2.645c-1.088-0.494-2.002-1.371-3.054-2.117
		c-1.925,1.895-3.892,3.743-5.753,5.691c-1.492,1.562-3.251,2.339-5.391,2.394c-4.468,0.113-8.738-0.811-12.828-2.533
		c-1.451-0.611-2.484-0.573-3.521,0.765c-1.333,1.721-3.295,1.955-5.335,1.777c-1.668-0.146-3.13-0.12-3.26,2.207
		c-0.028,0.507-1.034,1.265-1.677,1.37c-1.593,0.261-2.198,1.068-2.204,2.599c-0.019,4.102-0.702,4.843-4.862,5.242
		c-1.702,0.164-3.05,0.495-2.95,2.712c0.019,0.429-0.982,1.232-1.573,1.294c-1.506,0.157-2.137,0.642-2.022,2.286
		c0.287,4.115-2.572,7.054-6.675,7.055c-1.421,0-2.842,0.008-4.263-0.001c-2.621-0.018-3.231-0.625-3.326-3.18
		c-0.021-0.567-0.213-1.129-0.325-1.694C10,81.007,10,79.924,10,78.841z M78.362,52.806c1.725,0.949,3.655,2.168,5.723,3.074
		c0.817,0.358,2.062,0.278,2.868-0.108c0.374-0.18,0.474-1.707,0.169-2.386c-0.972-2.169-2.192-4.228-3.535-6.737
		C81.717,48.852,80.115,50.739,78.362,52.806z"/>
</g>
</svg>
