<?xml version="1.0" encoding="utf-8"?>
<!-- Generator: Adobe Illustrator 16.0.0, SVG Export Plug-In . SVG Version: 6.00 Build 0)  -->
<!DOCTYPE svg PUBLIC "-//W3C//DTD SVG 1.1//EN" "http://www.w3.org/Graphics/SVG/1.1/DTD/svg11.dtd">
<svg version="1.1" id="Layer_1" xmlns="http://www.w3.org/2000/svg" xmlns:xlink="http://www.w3.org/1999/xlink" x="0px" y="0px"
	 width="100px" height="100px" viewBox="0 0 100 100" enable-background="new 0 0 100 100" xml:space="preserve">
<g>
	<path fill-rule="evenodd" clip-rule="evenodd" d="M90,15.621c0,2.392,0,4.784,0,7.463c-3.072,0-5.984,0.05-8.893-0.024
		c-1.181-0.029-1.754,0.354-2.182,1.49c-5.65,14.989-11.369,29.952-17.018,44.942c-0.398,1.057-0.996,1.192-1.942,1.205
		c-13.992,0.195-27.982,0.419-41.974,0.631c-1.249,0.019-2.499,0.002-3.733,0.002c-0.037-0.099-0.088-0.167-0.078-0.224
		c0.675-3.815,0.671-3.877,4.524-4.122c11.634-0.74,23.27-1.466,34.911-2.098c1.689-0.092,2.693-0.529,3.182-2.236
		c0.507-1.774,1.268-3.477,2.032-5.518c-15.168,0-30.11,0-45.187,0c-0.688-5.929-1.32-11.616-2.015-17.294
		c-0.499-4.078-1.083-8.146-1.628-12.218c0-0.399,0-0.8,0-1.2c18.939-1.494,37.879-2.98,56.817-4.487
		c5.97-0.475,5.969-0.5,7.981-6.114c0.021-0.059,0.002-0.132,0.001-0.198C79.866,15.621,84.934,15.621,90,15.621z M70.295,27.468
		c-5.262,0.416-10.117,0.801-14.963,1.183c0,3.663,0,7.033,0,10.604c3.277,0,6.454,0.022,9.629-0.03
		c0.357-0.006,0.904-0.354,1.033-0.677C67.417,34.997,68.774,31.42,70.295,27.468z M51.896,39.151c0-3.463,0-6.807,0-10.25
		c-3.224,0.272-6.295,0.531-9.369,0.791c0,3.293,0,6.321,0,9.459C45.655,39.151,48.684,39.151,51.896,39.151z M39.095,41.753
		c-3.248,0-6.317,0-9.307,0c0,3.259,0,6.341,0,9.374c3.187,0,6.21,0,9.307,0C39.095,47.957,39.095,44.925,39.095,41.753z
		 M42.555,41.66c0,3.286,0,6.366,0,9.463c3.206,0,6.28,0,9.36,0c0-3.224,0-6.304,0-9.463C48.76,41.66,45.732,41.66,42.555,41.66z
		 M29.792,30.657c0,3.035,0,5.777,0,8.47c3.187,0,6.207,0,9.263,0c0-3.086,0-6.035,0-9.187
		C35.91,30.184,32.897,30.417,29.792,30.657z M26.298,41.714c-2.975,0-5.743,0-8.622,0c0.383,3.23,0.748,6.315,1.114,9.409
		c2.591,0,5.013,0,7.507,0C26.298,47.942,26.298,44.902,26.298,41.714z M64.813,41.697c-3.347,0-6.373,0-9.478,0
		c0,3.2,0,6.282,0,9.562c1.748,0,3.393,0.04,5.032-0.033c0.352-0.016,0.867-0.368,0.998-0.689
		C62.533,47.662,63.63,44.761,64.813,41.697z M17.379,39.162c3.118,0,5.947,0,8.834,0c0-2.767,0-5.429,0-8.223
		c-3.297,0.271-6.423,0.527-9.66,0.794C16.844,34.346,17.105,36.698,17.379,39.162z"/>
	<path fill-rule="evenodd" clip-rule="evenodd" d="M68.435,78.283c0.032,3.305-2.56,6.008-5.843,6.094
		c-3.271,0.086-6.146-2.742-6.146-6.042c0.001-3.239,2.682-5.894,5.997-5.935C65.771,72.358,68.402,74.943,68.435,78.283z"/>
	<path fill-rule="evenodd" clip-rule="evenodd" d="M18.455,84.377c-2.901,0-5.283-2.436-5.265-5.383
		c0.018-2.934,2.433-5.343,5.338-5.324c2.852,0.018,5.347,2.545,5.323,5.393C23.825,81.932,21.345,84.376,18.455,84.377z"/>
</g>
</svg>
