<?xml version="1.0" encoding="utf-8"?>
<!-- Generator: Adobe Illustrator 16.0.0, SVG Export Plug-In . SVG Version: 6.00 Build 0)  -->
<!DOCTYPE svg PUBLIC "-//W3C//DTD SVG 1.1//EN" "http://www.w3.org/Graphics/SVG/1.1/DTD/svg11.dtd">
<svg version="1.1" id="Layer_1" xmlns="http://www.w3.org/2000/svg" xmlns:xlink="http://www.w3.org/1999/xlink" x="0px" y="0px"
	 width="100px" height="100px" viewBox="0 0 100 100" enable-background="new 0 0 100 100" xml:space="preserve">
<g>
	<path fill-rule="evenodd" clip-rule="evenodd" d="M51.321,25.452c0.821,0.075,1.643,0.15,2.464,0.223
		c4.507,0.397,8.797,1.572,12.853,3.586c0.177,0.088,0.351,0.183,0.522,0.281c0.03,0.017,0.045,0.062,0.09,0.129
		c-0.911,1.596-1.832,3.207-2.778,4.866c-0.683-0.236-1.348-0.472-2.016-0.697c-4.194-1.415-8.489-2.271-12.929-2.296
		c-6.729-0.039-12.885,1.875-18.528,5.495c-4.801,3.079-8.792,6.94-11.519,12.01c-2.143,3.982-3.286,8.258-3.751,12.736
		c-0.407,3.92-0.289,7.833,0.108,11.819c-1.599,0.309-3.183,0.615-4.882,0.943c-0.192-0.855-0.448-1.667-0.55-2.497
		c-1.021-8.317-0.161-16.404,3.067-24.183c1.544-3.719,3.957-6.856,6.732-9.715c6.381-6.574,14.175-10.483,23.159-12.056
		c1.712-0.299,3.464-0.368,5.196-0.546c0.168-0.018,0.333-0.064,0.498-0.098C49.813,25.452,50.567,25.452,51.321,25.452z"/>
	<path fill-rule="evenodd" clip-rule="evenodd" d="M71.93,52.759c1.045,0,2.063,0.011,3.082-0.004
		c0.693-0.011,1.386-0.079,2.077-0.075c0.145,0.001,0.382,0.185,0.417,0.324c0.841,3.32,1.656,6.646,2.485,9.97
		c0.08,0.32-0.044,0.449-0.322,0.578c-1.436,0.665-2.859,1.352-4.37,2.07c1.346,0.715,2.611,1.406,3.897,2.058
		c0.399,0.202,0.593,0.418,0.564,0.896c-0.067,1.146,0.009,2.304-0.127,3.439c-0.18,1.507-1.302,2.478-2.799,2.481
		c-6.088,0.017-12.176,0.005-18.265,0.003c-0.038,0-0.076-0.016-0.145-0.031c0.176-0.838,0.39-1.669,0.52-2.514
		c0.403-2.609-0.195-5.013-1.688-7.164c-0.567-0.817-0.767-1.666-0.763-2.618c0.009-1.983,0.003-3.966,0.003-5.949
		c0-4.163,0-8.327,0-12.49c0-0.159,0.025-0.323-0.009-0.474c-0.034-0.152-0.129-0.291-0.196-0.436
		c-0.145,0.096-0.351,0.159-0.422,0.294c-0.538,1.014-1.049,2.043-1.57,3.066c-2.484,4.868-4.964,9.737-7.466,14.595
		c-0.158,0.305-0.462,0.587-0.768,0.755c-2.429,1.338-4.438,3.056-5.389,5.767c-0.727,2.074-0.626,4.166-0.118,6.266
		c0.07,0.287,0.136,0.574,0.223,0.94c-0.236,0-0.428,0-0.619,0c-5.672,0-11.344,0.001-17.016-0.001
		c-2.015,0-3.056-0.961-3.185-2.959c-0.076-1.186-0.119-2.373-0.179-3.596c1.46-0.705,2.918-1.409,4.491-2.169
		c-0.798-0.426-1.498-0.802-2.201-1.172c-0.7-0.37-1.4-0.741-2.108-1.096c-0.265-0.133-0.378-0.285-0.304-0.6
		c0.797-3.351,1.582-6.705,2.372-10.058c0.013-0.055,0.044-0.104,0.086-0.2c1.809,0.096,3.623,0.192,5.56,0.296
		c-1.034-1.577-2.018-3.074-3.032-4.622c2.632-2.568,5.267-5.138,7.929-7.736c1.376,0.97,2.73,1.925,4.16,2.934
		c0.02-0.257,0.042-0.423,0.043-0.588c0.003-1.349,0.011-2.697-0.005-4.046c-0.004-0.345,0.07-0.516,0.451-0.613
		c3.28-0.834,6.555-1.691,9.827-2.559c0.363-0.096,0.526,0,0.682,0.327c0.571,1.197,1.171,2.38,1.762,3.568
		c0.085,0.169,0.18,0.333,0.312,0.574c0.776-1.548,1.511-3.011,2.262-4.506c2.148,0.534,4.277,1.062,6.405,1.594
		c1.306,0.326,2.605,0.679,3.918,0.976c0.406,0.092,0.493,0.259,0.462,0.644c-0.107,1.343-0.184,2.688-0.269,4.033
		c-0.012,0.188-0.001,0.378-0.001,0.641c1.501-0.979,2.956-1.927,4.462-2.908c2.646,2.534,5.287,5.064,7.962,7.626
		C73.969,49.8,72.94,51.292,71.93,52.759z"/>
	<path fill-rule="evenodd" clip-rule="evenodd" d="M89.544,74.433c-1.252-0.056-2.553-0.067-3.843-0.188
		c-0.854-0.08-1.359-0.666-1.414-1.516c-0.115-1.797-0.231-3.598-0.243-5.397c-0.019-2.896-0.054-5.781-0.565-8.646
		c-1.105-6.183-3.819-11.558-8.171-16.064c-1.577-1.633-3.377-3.05-5.079-4.561c-0.251-0.222-0.527-0.416-0.822-0.647
		c0.997-1.709,1.981-3.396,3.033-5.2c1.449,1.166,2.881,2.226,4.212,3.4c7.242,6.391,11.341,14.469,12.773,23.966
		c0.696,4.612,0.707,9.236,0.314,13.871c-0.019,0.218-0.053,0.434-0.085,0.648C89.646,74.157,89.618,74.211,89.544,74.433z"/>
	<path fill-rule="evenodd" clip-rule="evenodd" d="M49.771,74.507c-2.318-0.003-4.118-1.833-4.104-4.173
		c0.015-2.377,1.767-4.119,4.144-4.119c2.359-0.001,4.159,1.817,4.147,4.19C53.949,72.699,52.1,74.51,49.771,74.507z"/>
</g>
</svg>
