<?xml version="1.0" encoding="utf-8"?>
<!-- Generator: Adobe Illustrator 16.0.0, SVG Export Plug-In . SVG Version: 6.00 Build 0)  -->
<!DOCTYPE svg PUBLIC "-//W3C//DTD SVG 1.1//EN" "http://www.w3.org/Graphics/SVG/1.1/DTD/svg11.dtd">
<svg version="1.1" id="Layer_1" xmlns="http://www.w3.org/2000/svg" xmlns:xlink="http://www.w3.org/1999/xlink" x="0px" y="0px"
	 width="100px" height="100px" viewBox="0 0 100 100" enable-background="new 0 0 100 100" xml:space="preserve">
<g>
	<polygon fill-rule="evenodd" clip-rule="evenodd" points="22.172,17.093 10,17.093 10,12.385 25.055,12.385 46.858,58.483 
		42.489,60.812 	"/>
	<path fill-rule="evenodd" clip-rule="evenodd" d="M39.641,31.809l34.983-14.511l14.997,36.287l-24.224,8.812
		c-2.14-3.009-9.668-6.163-13.348-5.06L39.641,31.809z"/>
	<path fill-rule="evenodd" clip-rule="evenodd" d="M67.452,74.22c0.03,7.345-6.204,13.42-13.746,13.396
		c-7.482-0.023-13.62-5.96-13.697-13.249c-0.078-7.295,6.216-13.431,13.751-13.405C61.229,60.986,67.422,66.982,67.452,74.22z
		 M58.796,74.281c-0.013-2.737-2.313-4.939-5.12-4.901c-2.849,0.039-5.043,2.245-4.993,5.018c0.048,2.684,2.214,4.742,5.007,4.759
		C56.568,79.174,58.81,77.034,58.796,74.281z"/>
	<polyline fill-rule="evenodd" clip-rule="evenodd" points="87.458,58.61 90,63.325 70.119,70.542 67.656,65.845 	"/>
</g>
</svg>
