<?xml version="1.0" encoding="utf-8"?>
<!-- Generator: Adobe Illustrator 16.0.0, SVG Export Plug-In . SVG Version: 6.00 Build 0)  -->
<!DOCTYPE svg PUBLIC "-//W3C//DTD SVG 1.1//EN" "http://www.w3.org/Graphics/SVG/1.1/DTD/svg11.dtd">
<svg version="1.1" id="Layer_1" xmlns="http://www.w3.org/2000/svg" xmlns:xlink="http://www.w3.org/1999/xlink" x="0px" y="0px"
	 width="100px" height="100px" viewBox="0 0 100 100" enable-background="new 0 0 100 100" xml:space="preserve">
<g>
	<path fill-rule="evenodd" clip-rule="evenodd" d="M87.729,27.707c1.009,0,2.019,0,3.027,0c0,15.298,0,30.597,0,46.089
		c-3.341,0-6.478,0.027-9.612-0.007c-3.884-0.041-4.024-0.213-4.011-4.095c0.004-1.071,0.003-2.145-0.067-3.213
		c-0.357-5.409-2.528-10.018-6.555-13.599c-6.155-5.476-13.228-7.02-20.843-3.603c-7.774,3.488-11.786,9.751-12.05,18.316
		c-0.063,2.06-0.009,4.123-0.009,6.326c-4.345,0-8.438-0.08-12.525,0.023c-3.694,0.094-7.055-0.971-10.394-2.384
		c-2.811-1.189-4.174-2.894-3.899-6.198c0.343-4.113,0.083-8.277,0.083-12.313c0.324-0.162,0.433-0.264,0.542-0.264
		c3.844-0.022,7.689-0.042,11.534-0.049c3.967-0.008,7.489-2.561,8.931-6.683c-5.384,0-10.685,0-16.469,0
		c4.143-3.639,8.544-5.595,13.322-6.595c14.849-3.106,29.721-6.105,44.593-9.098C78.111,29.401,82.928,28.588,87.729,27.707z"/>
</g>
</svg>
